<?xml version="1.0" encoding="UTF-8"?>
<svg xmlns="http://www.w3.org/2000/svg" xmlns:xlink="http://www.w3.org/1999/xlink" viewBox="0 0 30 30" width="30px" height="30px">
<g id="surface25411175">
<path style=" stroke:none;fill-rule:nonzero;fill:rgb(100%,100%,100%);fill-opacity:1;" d="M 6 4 C 4.894531 4 4 4.894531 4 6 L 4 17.328125 L 6.535156 18.015625 C 7.128906 16.988281 8.167969 16.246094 9.390625 16.0625 L 12.066406 12.851562 C 12.027344 12.574219 12 12.289062 12 12 C 12 8.6875 14.6875 6 18 6 C 21.3125 6 24 8.6875 24 12 C 24 15.3125 21.3125 18 18 18 C 17.710938 18 17.425781 17.972656 17.148438 17.933594 L 13.9375 20.609375 C 13.644531 22.527344 12 24 10 24 C 7.789062 24 6 22.210938 6 20 C 6 19.980469 6.003906 19.964844 6.003906 19.949219 L 4 19.402344 L 4 24 C 4 25.105469 4.894531 26 6 26 L 24 26 C 25.105469 26 26 25.105469 26 24 L 26 6 C 26 4.894531 25.105469 4 24 4 Z M 18 8 C 15.800781 8 14 9.800781 14 12 C 14 14.199219 15.800781 16 18 16 C 20.199219 16 22 14.199219 22 12 C 22 9.800781 20.199219 8 18 8 Z M 18 10 C 19.117188 10 20 10.882812 20 12 C 20 13.117188 19.117188 14 18 14 C 16.882812 14 16 13.117188 16 12 C 16 10.882812 16.882812 10 18 10 Z M 10 17.5 C 9.214844 17.5 8.523438 17.867188 8.0625 18.433594 L 10.261719 19.035156 C 10.796875 19.179688 11.113281 19.730469 10.964844 20.261719 C 10.84375 20.707031 10.441406 21 10 21 C 9.914062 21 9.824219 20.988281 9.734375 20.964844 L 7.535156 20.363281 C 7.714844 21.570312 8.742188 22.5 10 22.5 C 11.382812 22.5 12.5 21.382812 12.5 20 C 12.5 18.617188 11.382812 17.5 10 17.5 Z M 10 17.5 "/>
</g>
</svg>
